<?xml version="1.0" encoding="UTF-8" standalone="no"?><svg xmlns="http://www.w3.org/2000/svg" xmlns:xlink="http://www.w3.org/1999/xlink" contentScriptType="application/ecmascript" contentStyleType="text/css" height="3206px" preserveAspectRatio="none" style="width:355px;height:3206px;" version="1.1" viewBox="0 0 355 3206" width="355px" zoomAndPan="magnify"><defs><filter height="300%" id="fz02jb3ljkcpn" width="300%" x="-1" y="-1"><feGaussianBlur result="blurOut" stdDeviation="2.0"/><feColorMatrix in="blurOut" result="blurOut2" type="matrix" values="0 0 0 0 0 0 0 0 0 0 0 0 0 0 0 0 0 0 .4 0"/><feOffset dx="4.0" dy="4.0" in="blurOut2" result="blurOut3"/><feBlend in="SourceGraphic" in2="blurOut3" mode="normal"/></filter></defs><g><ellipse cx="284" cy="18" fill="#000000" filter="url(#fz02jb3ljkcpn)" rx="10" ry="10" style="stroke: none; stroke-width: 1.0;"/><rect fill="#FEFECE" filter="url(#fz02jb3ljkcpn)" height="33.9688" rx="12.5" ry="12.5" style="stroke: #A80036; stroke-width: 1.5;" width="120" x="224" y="82"/><text fill="#000000" font-family="sans-serif" font-size="12" lengthAdjust="spacingAndGlyphs" textLength="100" x="234" y="103.1387">null,null,null,null</text><rect fill="#FEFECE" filter="url(#fz02jb3ljkcpn)" height="33.9688" rx="12.5" ry="12.5" style="stroke: #A80036; stroke-width: 1.5;" width="106" x="231" y="170"/><text fill="#000000" font-family="sans-serif" font-size="12" lengthAdjust="spacingAndGlyphs" textLength="86" x="241" y="191.1387">0,null,null,null</text><rect fill="#FEFECE" filter="url(#fz02jb3ljkcpn)" height="33.9688" rx="12.5" ry="12.5" style="stroke: #A80036; stroke-width: 1.5;" width="92" x="238" y="258"/><text fill="#000000" font-family="sans-serif" font-size="12" lengthAdjust="spacingAndGlyphs" textLength="72" x="248" y="279.1387">0,0,null,null</text><rect fill="#FEFECE" filter="url(#fz02jb3ljkcpn)" height="33.9688" rx="12.5" ry="12.5" style="stroke: #A80036; stroke-width: 1.5;" width="78" x="245" y="346"/><text fill="#000000" font-family="sans-serif" font-size="12" lengthAdjust="spacingAndGlyphs" textLength="58" x="255" y="367.1387">0,0,null,0</text><rect fill="#FF0000" filter="url(#fz02jb3ljkcpn)" height="33.9688" rx="12.5" ry="12.5" style="stroke: #A80036; stroke-width: 1.5;" width="64" x="252" y="434"/><text fill="#000000" font-family="sans-serif" font-size="12" lengthAdjust="spacingAndGlyphs" textLength="44" x="262" y="455.1387">0,0,0,0</text><rect fill="#FEFECE" filter="url(#fz02jb3ljkcpn)" height="33.9688" rx="12.5" ry="12.5" style="stroke: #A80036; stroke-width: 1.5;" width="64" x="189" y="522"/><text fill="#000000" font-family="sans-serif" font-size="12" lengthAdjust="spacingAndGlyphs" textLength="44" x="199" y="543.1387">0,1,0,0</text><rect fill="#FEFECE" filter="url(#fz02jb3ljkcpn)" height="33.9688" rx="12.5" ry="12.5" style="stroke: #A80036; stroke-width: 1.5;" width="64" x="189" y="610"/><text fill="#000000" font-family="sans-serif" font-size="12" lengthAdjust="spacingAndGlyphs" textLength="44" x="199" y="631.1387">0,1,1,0</text><rect fill="#FEFECE" filter="url(#fz02jb3ljkcpn)" height="33.9688" rx="12.5" ry="12.5" style="stroke: #A80036; stroke-width: 1.5;" width="64" x="189" y="698"/><text fill="#000000" font-family="sans-serif" font-size="12" lengthAdjust="spacingAndGlyphs" textLength="44" x="199" y="719.1387">0,1,2,0</text><rect fill="#FEFECE" filter="url(#fz02jb3ljkcpn)" height="33.9688" rx="12.5" ry="12.5" style="stroke: #A80036; stroke-width: 1.5;" width="64" x="189" y="786"/><text fill="#000000" font-family="sans-serif" font-size="12" lengthAdjust="spacingAndGlyphs" textLength="44" x="199" y="807.1387">0,1,3,0</text><rect fill="#FEFECE" filter="url(#fz02jb3ljkcpn)" height="33.9688" rx="12.5" ry="12.5" style="stroke: #A80036; stroke-width: 1.5;" width="64" x="189" y="874"/><text fill="#000000" font-family="sans-serif" font-size="12" lengthAdjust="spacingAndGlyphs" textLength="44" x="199" y="895.1387">0,1,3,1</text><rect fill="#FEFECE" filter="url(#fz02jb3ljkcpn)" height="33.9688" rx="12.5" ry="12.5" style="stroke: #A80036; stroke-width: 1.5;" width="64" x="189" y="962"/><text fill="#000000" font-family="sans-serif" font-size="12" lengthAdjust="spacingAndGlyphs" textLength="44" x="199" y="983.1387">0,1,3,2</text><rect fill="#FEFECE" filter="url(#fz02jb3ljkcpn)" height="33.9688" rx="12.5" ry="12.5" style="stroke: #A80036; stroke-width: 1.5;" width="64" x="189" y="1050"/><text fill="#000000" font-family="sans-serif" font-size="12" lengthAdjust="spacingAndGlyphs" textLength="44" x="199" y="1071.1387">0,1,3,3</text><rect fill="#FEFECE" filter="url(#fz02jb3ljkcpn)" height="33.9688" rx="12.5" ry="12.5" style="stroke: #A80036; stroke-width: 1.5;" width="64" x="188" y="1138"/><text fill="#000000" font-family="sans-serif" font-size="12" lengthAdjust="spacingAndGlyphs" textLength="44" x="198" y="1159.1387">0,1,3,4</text><rect fill="#FEFECE" filter="url(#fz02jb3ljkcpn)" height="33.9688" rx="12.5" ry="12.5" style="stroke: #A80036; stroke-width: 1.5;" width="64" x="184" y="1226"/><text fill="#000000" font-family="sans-serif" font-size="12" lengthAdjust="spacingAndGlyphs" textLength="44" x="194" y="1247.1387">0,1,4,4</text><rect fill="#FEFECE" filter="url(#fz02jb3ljkcpn)" height="33.9688" rx="12.5" ry="12.5" style="stroke: #A80036; stroke-width: 1.5;" width="64" x="174" y="1314"/><text fill="#000000" font-family="sans-serif" font-size="12" lengthAdjust="spacingAndGlyphs" textLength="44" x="184" y="1335.1387">0,1,5,4</text><rect fill="#FEFECE" filter="url(#fz02jb3ljkcpn)" height="33.9688" rx="12.5" ry="12.5" style="stroke: #A80036; stroke-width: 1.5;" width="64" x="174" y="1402"/><text fill="#000000" font-family="sans-serif" font-size="12" lengthAdjust="spacingAndGlyphs" textLength="44" x="184" y="1423.1387">0,0,5,4</text><rect fill="#FEFECE" filter="url(#fz02jb3ljkcpn)" height="33.9688" rx="12.5" ry="12.5" style="stroke: #A80036; stroke-width: 1.5;" width="64" x="174" y="1490"/><text fill="#000000" font-family="sans-serif" font-size="12" lengthAdjust="spacingAndGlyphs" textLength="44" x="184" y="1511.1387">0,0,5,3</text><rect fill="#FEFECE" filter="url(#fz02jb3ljkcpn)" height="33.9688" rx="12.5" ry="12.5" style="stroke: #A80036; stroke-width: 1.5;" width="64" x="111" y="1578"/><text fill="#000000" font-family="sans-serif" font-size="12" lengthAdjust="spacingAndGlyphs" textLength="44" x="121" y="1599.1387">0,1,5,3</text><rect fill="#FEFECE" filter="url(#fz02jb3ljkcpn)" height="33.9688" rx="12.5" ry="12.5" style="stroke: #A80036; stroke-width: 1.5;" width="64" x="111" y="1666"/><text fill="#000000" font-family="sans-serif" font-size="12" lengthAdjust="spacingAndGlyphs" textLength="44" x="121" y="1687.1387">0,1,5,2</text><rect fill="#FEFECE" filter="url(#fz02jb3ljkcpn)" height="33.9688" rx="12.5" ry="12.5" style="stroke: #A80036; stroke-width: 1.5;" width="64" x="21" y="1666"/><text fill="#000000" font-family="sans-serif" font-size="12" lengthAdjust="spacingAndGlyphs" textLength="44" x="31" y="1687.1387">0,1,4,3</text><rect fill="#FEFECE" filter="url(#fz02jb3ljkcpn)" height="33.9688" rx="12.5" ry="12.5" style="stroke: #A80036; stroke-width: 1.5;" width="64" x="181" y="1754"/><text fill="#000000" font-family="sans-serif" font-size="12" lengthAdjust="spacingAndGlyphs" textLength="44" x="191" y="1775.1387">0,0,5,2</text><rect fill="#FEFECE" filter="url(#fz02jb3ljkcpn)" height="33.9688" rx="12.5" ry="12.5" style="stroke: #A80036; stroke-width: 1.5;" width="64" x="112" y="1930"/><text fill="#000000" font-family="sans-serif" font-size="12" lengthAdjust="spacingAndGlyphs" textLength="44" x="122" y="1951.1387">0,1,5,1</text><rect fill="#FEFECE" filter="url(#fz02jb3ljkcpn)" height="33.9688" rx="12.5" ry="12.5" style="stroke: #A80036; stroke-width: 1.5;" width="64" x="6" y="1754"/><text fill="#000000" font-family="sans-serif" font-size="12" lengthAdjust="spacingAndGlyphs" textLength="44" x="16" y="1775.1387">0,1,4,2</text><rect fill="#FEFECE" filter="url(#fz02jb3ljkcpn)" height="33.9688" rx="12.5" ry="12.5" style="stroke: #A80036; stroke-width: 1.5;" width="64" x="181" y="1842"/><text fill="#000000" font-family="sans-serif" font-size="12" lengthAdjust="spacingAndGlyphs" textLength="44" x="191" y="1863.1387">0,0,5,1</text><rect fill="#FEFECE" filter="url(#fz02jb3ljkcpn)" height="33.9688" rx="12.5" ry="12.5" style="stroke: #A80036; stroke-width: 1.5;" width="64" x="141" y="2018"/><text fill="#000000" font-family="sans-serif" font-size="12" lengthAdjust="spacingAndGlyphs" textLength="44" x="151" y="2039.1387">0,1,5,0</text><rect fill="#FEFECE" filter="url(#fz02jb3ljkcpn)" height="33.9688" rx="12.5" ry="12.5" style="stroke: #A80036; stroke-width: 1.5;" width="64" x="53" y="2018"/><text fill="#000000" font-family="sans-serif" font-size="12" lengthAdjust="spacingAndGlyphs" textLength="44" x="63" y="2039.1387">0,1,4,1</text><rect fill="#FEFECE" filter="url(#fz02jb3ljkcpn)" height="33.9688" rx="12.5" ry="12.5" style="stroke: #A80036; stroke-width: 1.5;" width="64" x="177" y="2106"/><text fill="#000000" font-family="sans-serif" font-size="12" lengthAdjust="spacingAndGlyphs" textLength="44" x="187" y="2127.1387">0,0,5,0</text><rect fill="#FEFECE" filter="url(#fz02jb3ljkcpn)" height="33.9688" rx="12.5" ry="12.5" style="stroke: #A80036; stroke-width: 1.5;" width="64" x="89" y="2106"/><text fill="#000000" font-family="sans-serif" font-size="12" lengthAdjust="spacingAndGlyphs" textLength="44" x="99" y="2127.1387">0,1,4,0</text><rect fill="#FEFECE" filter="url(#fz02jb3ljkcpn)" height="33.9688" rx="12.5" ry="12.5" style="stroke: #A80036; stroke-width: 1.5;" width="64" x="177" y="2194"/><text fill="#000000" font-family="sans-serif" font-size="12" lengthAdjust="spacingAndGlyphs" textLength="44" x="187" y="2215.1387">0,0,4,0</text><rect fill="#FEFECE" filter="url(#fz02jb3ljkcpn)" height="33.9688" rx="12.5" ry="12.5" style="stroke: #A80036; stroke-width: 1.5;" width="64" x="177" y="2282"/><text fill="#000000" font-family="sans-serif" font-size="12" lengthAdjust="spacingAndGlyphs" textLength="44" x="187" y="2303.1387">1,0,4,0</text><rect fill="#FEFECE" filter="url(#fz02jb3ljkcpn)" height="33.9688" rx="12.5" ry="12.5" style="stroke: #A80036; stroke-width: 1.5;" width="64" x="177" y="2370"/><text fill="#000000" font-family="sans-serif" font-size="12" lengthAdjust="spacingAndGlyphs" textLength="44" x="187" y="2391.1387">1,0,3,0</text><rect fill="#FEFECE" filter="url(#fz02jb3ljkcpn)" height="33.9688" rx="12.5" ry="12.5" style="stroke: #A80036; stroke-width: 1.5;" width="64" x="177" y="2458"/><text fill="#000000" font-family="sans-serif" font-size="12" lengthAdjust="spacingAndGlyphs" textLength="44" x="187" y="2479.1387">2,0,3,0</text><rect fill="#FEFECE" filter="url(#fz02jb3ljkcpn)" height="33.9688" rx="12.5" ry="12.5" style="stroke: #A80036; stroke-width: 1.5;" width="64" x="177" y="2546"/><text fill="#000000" font-family="sans-serif" font-size="12" lengthAdjust="spacingAndGlyphs" textLength="44" x="187" y="2567.1387">2,0,2,0</text><rect fill="#FEFECE" filter="url(#fz02jb3ljkcpn)" height="33.9688" rx="12.5" ry="12.5" style="stroke: #A80036; stroke-width: 1.5;" width="64" x="177" y="2634"/><text fill="#000000" font-family="sans-serif" font-size="12" lengthAdjust="spacingAndGlyphs" textLength="44" x="187" y="2655.1387">3,0,2,0</text><rect fill="#FEFECE" filter="url(#fz02jb3ljkcpn)" height="33.9688" rx="12.5" ry="12.5" style="stroke: #A80036; stroke-width: 1.5;" width="64" x="177" y="2722"/><text fill="#000000" font-family="sans-serif" font-size="12" lengthAdjust="spacingAndGlyphs" textLength="44" x="187" y="2743.1387">3,0,1,0</text><rect fill="#FEFECE" filter="url(#fz02jb3ljkcpn)" height="33.9688" rx="12.5" ry="12.5" style="stroke: #A80036; stroke-width: 1.5;" width="64" x="176" y="2810"/><text fill="#000000" font-family="sans-serif" font-size="12" lengthAdjust="spacingAndGlyphs" textLength="44" x="186" y="2831.1387">4,0,1,0</text><rect fill="#FEFECE" filter="url(#fz02jb3ljkcpn)" height="33.9688" rx="12.5" ry="12.5" style="stroke: #A80036; stroke-width: 1.5;" width="64" x="173" y="2898"/><text fill="#000000" font-family="sans-serif" font-size="12" lengthAdjust="spacingAndGlyphs" textLength="44" x="183" y="2919.1387">4,0,0,0</text><rect fill="#FEFECE" filter="url(#fz02jb3ljkcpn)" height="33.9688" rx="12.5" ry="12.5" style="stroke: #A80036; stroke-width: 1.5;" width="64" x="189" y="2986"/><text fill="#000000" font-family="sans-serif" font-size="12" lengthAdjust="spacingAndGlyphs" textLength="44" x="199" y="3007.1387">5,0,0,0</text><rect fill="#FEFECE" filter="url(#fz02jb3ljkcpn)" height="33.9688" rx="12.5" ry="12.5" style="stroke: #A80036; stroke-width: 1.5;" width="64" x="105" y="2986"/><text fill="#000000" font-family="sans-serif" font-size="12" lengthAdjust="spacingAndGlyphs" textLength="44" x="115" y="3007.1387">3,0,0,0</text><rect fill="#FEFECE" filter="url(#fz02jb3ljkcpn)" height="33.9688" rx="12.5" ry="12.5" style="stroke: #A80036; stroke-width: 1.5;" width="64" x="177" y="3074"/><text fill="#000000" font-family="sans-serif" font-size="12" lengthAdjust="spacingAndGlyphs" textLength="44" x="187" y="3095.1387">2,0,0,0</text><rect fill="#FEFECE" filter="url(#fz02jb3ljkcpn)" height="33.9688" rx="12.5" ry="12.5" style="stroke: #A80036; stroke-width: 1.5;" width="64" x="238" y="3162"/><text fill="#000000" font-family="sans-serif" font-size="12" lengthAdjust="spacingAndGlyphs" textLength="44" x="248" y="3183.1387">1,0,0,0</text><!--link start to null,null,null,null--><path d="M284,28.2587 C284,40.3447 284,60.7784 284,76.586 " fill="none" id="start-null,null,null,null" style="stroke: #A80036; stroke-width: 1.0;"/><polygon fill="#A80036" points="284,81.7507,288,72.7507,284,76.7507,280,72.7507,284,81.7507" style="stroke: #A80036; stroke-width: 1.0;"/><text fill="#000000" font-family="sans-serif" font-size="11" lengthAdjust="spacingAndGlyphs" textLength="7" x="285" y="59.2104">1</text><!--link null,null,null,null to 0,null,null,null--><path d="M284,116.386 C284,130.2154 284,149.6635 284,164.6491 " fill="none" id="null,null,null,null-0,null,null,null" style="stroke: #A80036; stroke-width: 1.0;"/><polygon fill="#A80036" points="284,169.9496,288,160.9496,284,164.9496,280,160.9496,284,169.9496" style="stroke: #A80036; stroke-width: 1.0;"/><text fill="#000000" font-family="sans-serif" font-size="11" lengthAdjust="spacingAndGlyphs" textLength="7" x="285" y="147.2104">1</text><!--link 0,null,null,null to 0,0,null,null--><path d="M284,204.386 C284,218.2154 284,237.6635 284,252.6491 " fill="none" id="0,null,null,null-0,0,null,null" style="stroke: #A80036; stroke-width: 1.0;"/><polygon fill="#A80036" points="284,257.9496,288,248.9496,284,252.9496,280,248.9496,284,257.9496" style="stroke: #A80036; stroke-width: 1.0;"/><text fill="#000000" font-family="sans-serif" font-size="11" lengthAdjust="spacingAndGlyphs" textLength="7" x="285" y="235.2104">1</text><!--link 0,0,null,null to 0,0,null,0--><path d="M284,292.386 C284,306.2154 284,325.6635 284,340.6491 " fill="none" id="0,0,null,null-0,0,null,0" style="stroke: #A80036; stroke-width: 1.0;"/><polygon fill="#A80036" points="284,345.9496,288,336.9496,284,340.9496,280,336.9496,284,345.9496" style="stroke: #A80036; stroke-width: 1.0;"/><text fill="#000000" font-family="sans-serif" font-size="11" lengthAdjust="spacingAndGlyphs" textLength="7" x="285" y="323.2104">1</text><!--link 0,0,null,0 to 0,0,0,0--><path d="M284,380.386 C284,394.2154 284,413.6635 284,428.6491 " fill="none" id="0,0,null,0-0,0,0,0" style="stroke: #A80036; stroke-width: 1.0;"/><polygon fill="#A80036" points="284,433.9496,288,424.9496,284,428.9496,280,424.9496,284,433.9496" style="stroke: #A80036; stroke-width: 1.0;"/><text fill="#000000" font-family="sans-serif" font-size="11" lengthAdjust="spacingAndGlyphs" textLength="7" x="285" y="411.2104">1</text><!--link 0,0,0,0 to 0,1,0,0--><path d="M271.5532,468.386 C261.3921,482.5793 246.994,502.6909 236.161,517.8227 " fill="none" id="0,0,0,0-0,1,0,0" style="stroke: #A80036; stroke-width: 1.0;"/><polygon fill="#A80036" points="233.2065,521.9496,241.6979,516.9601,236.1171,517.8841,235.1931,512.3032,233.2065,521.9496" style="stroke: #A80036; stroke-width: 1.0;"/><text fill="#000000" font-family="sans-serif" font-size="11" lengthAdjust="spacingAndGlyphs" textLength="7" x="257" y="499.2104">1</text><!--link 0,1,0,0 to 0,1,1,0--><path d="M221,556.386 C221,570.2154 221,589.6635 221,604.6491 " fill="none" id="0,1,0,0-0,1,1,0" style="stroke: #A80036; stroke-width: 1.0;"/><polygon fill="#A80036" points="221,609.9496,225,600.9496,221,604.9496,217,600.9496,221,609.9496" style="stroke: #A80036; stroke-width: 1.0;"/><text fill="#000000" font-family="sans-serif" font-size="11" lengthAdjust="spacingAndGlyphs" textLength="7" x="222" y="587.2104">1</text><!--link 0,1,1,0 to 0,1,2,0--><path d="M221,644.386 C221,658.2154 221,677.6635 221,692.6491 " fill="none" id="0,1,1,0-0,1,2,0" style="stroke: #A80036; stroke-width: 1.0;"/><polygon fill="#A80036" points="221,697.9496,225,688.9496,221,692.9496,217,688.9496,221,697.9496" style="stroke: #A80036; stroke-width: 1.0;"/><text fill="#000000" font-family="sans-serif" font-size="11" lengthAdjust="spacingAndGlyphs" textLength="7" x="222" y="675.2104">1</text><!--link 0,1,2,0 to 0,1,3,0--><path d="M221,732.386 C221,746.2154 221,765.6635 221,780.6491 " fill="none" id="0,1,2,0-0,1,3,0" style="stroke: #A80036; stroke-width: 1.0;"/><polygon fill="#A80036" points="221,785.9496,225,776.9496,221,780.9496,217,776.9496,221,785.9496" style="stroke: #A80036; stroke-width: 1.0;"/><text fill="#000000" font-family="sans-serif" font-size="11" lengthAdjust="spacingAndGlyphs" textLength="7" x="222" y="763.2104">1</text><!--link 0,1,3,0 to 0,1,3,1--><path d="M221,820.386 C221,834.2154 221,853.6635 221,868.6491 " fill="none" id="0,1,3,0-0,1,3,1" style="stroke: #A80036; stroke-width: 1.0;"/><polygon fill="#A80036" points="221,873.9496,225,864.9496,221,868.9496,217,864.9496,221,873.9496" style="stroke: #A80036; stroke-width: 1.0;"/><text fill="#000000" font-family="sans-serif" font-size="11" lengthAdjust="spacingAndGlyphs" textLength="7" x="222" y="851.2104">1</text><!--link 0,1,3,1 to 0,1,3,2--><path d="M221,908.386 C221,922.2154 221,941.6635 221,956.6491 " fill="none" id="0,1,3,1-0,1,3,2" style="stroke: #A80036; stroke-width: 1.0;"/><polygon fill="#A80036" points="221,961.9496,225,952.9496,221,956.9496,217,952.9496,221,961.9496" style="stroke: #A80036; stroke-width: 1.0;"/><text fill="#000000" font-family="sans-serif" font-size="11" lengthAdjust="spacingAndGlyphs" textLength="7" x="222" y="939.2104">1</text><!--link 0,1,3,2 to 0,1,3,3--><path d="M221,996.386 C221,1010.2154 221,1029.6635 221,1044.6491 " fill="none" id="0,1,3,2-0,1,3,3" style="stroke: #A80036; stroke-width: 1.0;"/><polygon fill="#A80036" points="221,1049.9496,225,1040.9496,221,1044.9496,217,1040.9496,221,1049.9496" style="stroke: #A80036; stroke-width: 1.0;"/><text fill="#000000" font-family="sans-serif" font-size="11" lengthAdjust="spacingAndGlyphs" textLength="7" x="222" y="1027.2104">1</text><!--link 0,1,3,3 to 0,1,3,4--><path d="M220.8024,1084.386 C220.6453,1098.2154 220.4243,1117.6635 220.254,1132.6491 " fill="none" id="0,1,3,3-0,1,3,4" style="stroke: #A80036; stroke-width: 1.0;"/><polygon fill="#A80036" points="220.1938,1137.9496,224.2959,1128.9957,220.2507,1132.9499,216.2964,1128.9047,220.1938,1137.9496" style="stroke: #A80036; stroke-width: 1.0;"/><text fill="#000000" font-family="sans-serif" font-size="11" lengthAdjust="spacingAndGlyphs" textLength="7" x="221" y="1115.2104">1</text><!--link 0,1,3,4 to 0,1,4,4--><path d="M219.2097,1172.386 C218.5811,1186.2154 217.6971,1205.6635 217.0159,1220.6491 " fill="none" id="0,1,3,4-0,1,4,4" style="stroke: #A80036; stroke-width: 1.0;"/><polygon fill="#A80036" points="216.775,1225.9496,221.1797,1217.1406,217.0021,1220.9548,213.188,1216.7772,216.775,1225.9496" style="stroke: #A80036; stroke-width: 1.0;"/><text fill="#000000" font-family="sans-serif" font-size="11" lengthAdjust="spacingAndGlyphs" textLength="7" x="219" y="1203.2104">1</text><!--link 0,1,4,4 to 0,1,5,4--><path d="M214.0243,1260.386 C212.4528,1274.2154 210.2428,1293.6635 208.5399,1308.6491 " fill="none" id="0,1,4,4-0,1,5,4" style="stroke: #A80036; stroke-width: 1.0;"/><polygon fill="#A80036" points="207.9375,1313.9496,212.9284,1305.459,208.5022,1308.9816,204.9796,1304.5554,207.9375,1313.9496" style="stroke: #A80036; stroke-width: 1.0;"/><text fill="#000000" font-family="sans-serif" font-size="11" lengthAdjust="spacingAndGlyphs" textLength="7" x="212" y="1291.2104">1</text><!--link 0,1,5,4 to 0,0,5,4--><path d="M206,1348.386 C206,1362.2154 206,1381.6635 206,1396.6491 " fill="none" id="0,1,5,4-0,0,5,4" style="stroke: #A80036; stroke-width: 1.0;"/><polygon fill="#A80036" points="206,1401.9496,210,1392.9496,206,1396.9496,202,1392.9496,206,1401.9496" style="stroke: #A80036; stroke-width: 1.0;"/><text fill="#000000" font-family="sans-serif" font-size="11" lengthAdjust="spacingAndGlyphs" textLength="14" x="207" y="1379.2104">21</text><!--link 0,0,5,4 to 0,0,5,3--><path d="M206,1436.386 C206,1450.2154 206,1469.6635 206,1484.6491 " fill="none" id="0,0,5,4-0,0,5,3" style="stroke: #A80036; stroke-width: 1.0;"/><polygon fill="#A80036" points="206,1489.9496,210,1480.9496,206,1484.9496,202,1480.9496,206,1489.9496" style="stroke: #A80036; stroke-width: 1.0;"/><text fill="#000000" font-family="sans-serif" font-size="11" lengthAdjust="spacingAndGlyphs" textLength="14" x="207" y="1467.2104">21</text><!--link 0,0,5,3 to 0,1,5,3--><path d="M199.6963,1524.4091 C195.5237,1534.6989 189.4512,1547.6893 182,1558 C177.9051,1563.6663 172.8676,1569.1845 167.7896,1574.1561 " fill="none" id="0,0,5,3-0,1,5,3" style="stroke: #A80036; stroke-width: 1.0;"/><polygon fill="#A80036" points="163.9135,1577.8447,173.1907,1574.5381,167.5356,1574.3979,167.6758,1568.7428,163.9135,1577.8447" style="stroke: #A80036; stroke-width: 1.0;"/><text fill="#000000" font-family="sans-serif" font-size="11" lengthAdjust="spacingAndGlyphs" textLength="14" x="191" y="1555.2104">21</text><!--link 0,1,5,3 to 0,0,5,3--><path d="M151.9306,1577.9395 C157.519,1567.7733 165.1322,1554.7904 173,1544 C176.9602,1538.5687 181.5752,1533.0079 186.0769,1527.9021 " fill="none" id="0,1,5,3-0,0,5,3" style="stroke: #A80036; stroke-width: 1.0;"/><polygon fill="#A80036" points="189.4846,1524.096,180.5011,1528.133,186.1494,1527.8211,186.4612,1533.4693,189.4846,1524.096" style="stroke: #A80036; stroke-width: 1.0;"/><text fill="#000000" font-family="sans-serif" font-size="11" lengthAdjust="spacingAndGlyphs" textLength="7" x="174" y="1555.2104">1</text><!--link 0,1,5,3 to 0,1,5,2--><path d="M153.6432,1612.2102 C158.4339,1621.9777 162.5129,1634.5119 160,1646 C158.8897,1651.0758 157.0156,1656.287 154.9079,1661.1374 " fill="none" id="0,1,5,3-0,1,5,2" style="stroke: #A80036; stroke-width: 1.0;"/><polygon fill="#A80036" points="152.7419,1665.8492,160.1356,1659.3428,154.8304,1661.3063,152.8669,1656.0011,152.7419,1665.8492" style="stroke: #A80036; stroke-width: 1.0;"/><text fill="#000000" font-family="sans-serif" font-size="11" lengthAdjust="spacingAndGlyphs" textLength="14" x="161" y="1643.2104">63</text><!--link 0,1,5,2 to 0,1,5,3--><path d="M140.4872,1665.5471 C139.3573,1655.7036 138.3977,1643.1743 139,1632 C139.2554,1627.2621 139.6934,1622.1976 140.1882,1617.3839 " fill="none" id="0,1,5,2-0,1,5,3" style="stroke: #A80036; stroke-width: 1.0;"/><polygon fill="#A80036" points="140.7416,1612.2862,135.7937,1620.802,140.202,1617.257,143.747,1621.6653,140.7416,1612.2862" style="stroke: #A80036; stroke-width: 1.0;"/><text fill="#000000" font-family="sans-serif" font-size="11" lengthAdjust="spacingAndGlyphs" textLength="14" x="140" y="1643.2104">63</text><!--link 0,1,5,3 to 0,1,4,3--><path d="M110.6528,1603.2379 C85.8154,1610.2942 54.5297,1621.0283 47,1632 C41.3295,1640.2626 41.7954,1651.1019 44.1023,1660.6621 " fill="none" id="0,1,5,3-0,1,4,3" style="stroke: #A80036; stroke-width: 1.0;"/><polygon fill="#A80036" points="45.4536,1665.5244,46.8973,1655.7819,44.1146,1660.707,39.1895,1657.9243,45.4536,1665.5244" style="stroke: #A80036; stroke-width: 1.0;"/><text fill="#000000" font-family="sans-serif" font-size="11" lengthAdjust="spacingAndGlyphs" textLength="21" x="48" y="1643.2104">105</text><!--link 0,1,4,3 to 0,1,5,3--><path d="M70.4379,1665.9496 C84.9807,1651.73 105.7698,1631.4029 121.3712,1616.1482 " fill="none" id="0,1,4,3-0,1,5,3" style="stroke: #A80036; stroke-width: 1.0;"/><polygon fill="#A80036" points="125.2189,1612.386,115.9873,1615.8179,121.6438,1615.8815,121.5801,1621.538,125.2189,1612.386" style="stroke: #A80036; stroke-width: 1.0;"/><text fill="#000000" font-family="sans-serif" font-size="11" lengthAdjust="spacingAndGlyphs" textLength="21" x="105" y="1643.2104">105</text><!--link 0,1,5,3 to 0,1,5,4--><path d="M142.4736,1577.97 C141.9246,1543.7006 143.2454,1464.3612 164,1402 C169.9323,1384.1753 180.8121,1365.9764 190.0119,1352.4666 " fill="none" id="0,1,5,3-0,1,5,4" style="stroke: #A80036; stroke-width: 1.0;"/><polygon fill="#A80036" points="193.0578,1348.072,184.6432,1353.1901,190.2094,1352.1814,191.2182,1357.7475,193.0578,1348.072" style="stroke: #A80036; stroke-width: 1.0;"/><text fill="#000000" font-family="sans-serif" font-size="11" lengthAdjust="spacingAndGlyphs" textLength="14" x="151" y="1467.2104">20</text><!--link 0,0,5,3 to 0,0,5,2--><path d="M208.7909,1524.2709 C209.6722,1530.4745 210.5365,1537.5346 211,1544 C216.367,1618.8663 214.8554,1707.9734 213.7294,1748.6978 " fill="none" id="0,0,5,3-0,0,5,2" style="stroke: #A80036; stroke-width: 1.0;"/><polygon fill="#A80036" points="213.5808,1753.8849,217.8371,1745.0032,213.7241,1748.887,209.8404,1744.774,213.5808,1753.8849" style="stroke: #A80036; stroke-width: 1.0;"/><text fill="#000000" font-family="sans-serif" font-size="11" lengthAdjust="spacingAndGlyphs" textLength="7" x="215" y="1643.2104">1</text><!--link 0,0,5,2 to 0,1,5,2--><path d="M207.1841,1753.8402 C203.1183,1743.3937 196.987,1730.1516 189,1720 C184.3658,1714.11 178.6259,1708.5659 172.7899,1703.6507 " fill="none" id="0,0,5,2-0,1,5,2" style="stroke: #A80036; stroke-width: 1.0;"/><polygon fill="#A80036" points="168.7467,1700.3519,173.1913,1709.1409,172.6208,1703.5128,178.2488,1702.9423,168.7467,1700.3519" style="stroke: #A80036; stroke-width: 1.0;"/><text fill="#000000" font-family="sans-serif" font-size="11" lengthAdjust="spacingAndGlyphs" textLength="7" x="198" y="1731.2104">1</text><!--link 0,1,5,2 to 0,0,5,2--><path d="M154.9134,1700.3211 C161.9679,1710.3448 171.2179,1723.0948 180,1734 C184.3021,1739.3421 189.1234,1744.9435 193.7238,1750.1252 " fill="none" id="0,1,5,2-0,0,5,2" style="stroke: #A80036; stroke-width: 1.0;"/><polygon fill="#A80036" points="197.1865,1753.9946,194.1652,1744.6206,193.8521,1750.2688,188.2039,1749.9556,197.1865,1753.9946" style="stroke: #A80036; stroke-width: 1.0;"/><text fill="#000000" font-family="sans-serif" font-size="11" lengthAdjust="spacingAndGlyphs" textLength="7" x="181" y="1731.2104">1</text><!--link 0,1,5,2 to 0,1,5,1--><path d="M143.0656,1700.3218 C143.2412,1746.6796 143.7217,1873.5358 143.9164,1924.9353 " fill="none" id="0,1,5,2-0,1,5,1" style="stroke: #A80036; stroke-width: 1.0;"/><polygon fill="#A80036" points="143.9354,1929.9576,147.9012,1920.9425,143.9164,1924.9576,139.9012,1920.9729,143.9354,1929.9576" style="stroke: #A80036; stroke-width: 1.0;"/><text fill="#000000" font-family="sans-serif" font-size="11" lengthAdjust="spacingAndGlyphs" textLength="7" x="144" y="1819.2104">2</text><!--link 0,1,5,1 to 0,1,5,2--><path d="M140.9807,1929.7135 C139.9542,1923.5085 138.8522,1916.4515 138,1910 C132.0399,1864.8825 126.6819,1853.4504 129,1808 C131.0026,1768.7359 133.3669,1759.0412 138,1720 C138.561,1715.273 139.2116,1710.2132 139.8542,1705.4005 " fill="none" id="0,1,5,1-0,1,5,2" style="stroke: #A80036; stroke-width: 1.0;"/><polygon fill="#A80036" points="140.5437,1700.3028,135.3731,1708.6852,139.8733,1705.2576,143.3008,1709.7579,140.5437,1700.3028" style="stroke: #A80036; stroke-width: 1.0;"/><text fill="#000000" font-family="sans-serif" font-size="11" lengthAdjust="spacingAndGlyphs" textLength="7" x="130" y="1819.2104">2</text><!--link 0,1,5,2 to 0,1,4,2--><path d="M110.8605,1697.208 C99.1721,1703.254 86.312,1711.0011 76,1720 C66.3326,1728.4363 57.612,1739.722 50.9706,1749.532 " fill="none" id="0,1,5,2-0,1,4,2" style="stroke: #A80036; stroke-width: 1.0;"/><polygon fill="#A80036" points="48.0695,1753.9199,56.3698,1748.6184,50.8271,1749.7491,49.6964,1744.2063,48.0695,1753.9199" style="stroke: #A80036; stroke-width: 1.0;"/><text fill="#000000" font-family="sans-serif" font-size="11" lengthAdjust="spacingAndGlyphs" textLength="7" x="77" y="1731.2104">5</text><!--link 0,1,4,2 to 0,1,5,2--><path d="M37.7601,1753.5946 C38.4972,1742.7906 41.1427,1729.2509 49,1720 C51.0508,1717.5854 80.7379,1706.1074 106.2077,1696.5674 " fill="none" id="0,1,4,2-0,1,5,2" style="stroke: #A80036; stroke-width: 1.0;"/><polygon fill="#A80036" points="110.9068,1694.8113,101.076,1694.2149,106.2231,1696.5616,103.8764,1701.7087,110.9068,1694.8113" style="stroke: #A80036; stroke-width: 1.0;"/><text fill="#000000" font-family="sans-serif" font-size="11" lengthAdjust="spacingAndGlyphs" textLength="7" x="50" y="1731.2104">5</text><!--link 0,0,5,2 to 0,0,5,1--><path d="M213,1788.386 C213,1802.2154 213,1821.6635 213,1836.6491 " fill="none" id="0,0,5,2-0,0,5,1" style="stroke: #A80036; stroke-width: 1.0;"/><polygon fill="#A80036" points="213,1841.9496,217,1832.9496,213,1836.9496,209,1832.9496,213,1841.9496" style="stroke: #A80036; stroke-width: 1.0;"/><text fill="#000000" font-family="sans-serif" font-size="11" lengthAdjust="spacingAndGlyphs" textLength="7" x="214" y="1819.2104">1</text><!--link 0,0,5,1 to 0,1,5,1--><path d="M207.1455,1876.1297 C203.0653,1886.5648 196.9323,1899.8056 189,1910 C184.3571,1915.9669 178.589,1921.6038 172.7485,1926.5947 " fill="none" id="0,0,5,1-0,1,5,1" style="stroke: #A80036; stroke-width: 1.0;"/><polygon fill="#A80036" points="168.7065,1929.9428,178.1891,1927.282,172.5571,1926.7532,173.0858,1921.1212,168.7065,1929.9428" style="stroke: #A80036; stroke-width: 1.0;"/><text fill="#000000" font-family="sans-serif" font-size="11" lengthAdjust="spacingAndGlyphs" textLength="7" x="198" y="1907.2104">1</text><!--link 0,1,5,1 to 0,0,5,1--><path d="M155.5269,1929.6455 C162.3692,1919.6107 171.3692,1906.8607 180,1896 C184.182,1890.7375 188.8834,1885.2426 193.3982,1880.1468 " fill="none" id="0,1,5,1-0,0,5,1" style="stroke: #A80036; stroke-width: 1.0;"/><polygon fill="#A80036" points="196.8026,1876.3382,187.8223,1880.3823,193.4703,1880.0659,193.7867,1885.7139,196.8026,1876.3382" style="stroke: #A80036; stroke-width: 1.0;"/><text fill="#000000" font-family="sans-serif" font-size="11" lengthAdjust="spacingAndGlyphs" textLength="7" x="181" y="1907.2104">1</text><!--link 0,1,5,1 to 0,1,5,0--><path d="M149.7295,1964.386 C154.3269,1978.3367 160.8085,1998.0051 165.764,2013.0424 " fill="none" id="0,1,5,1-0,1,5,0" style="stroke: #A80036; stroke-width: 1.0;"/><polygon fill="#A80036" points="167.3811,2017.9496,168.3632,2008.1498,165.8161,2013.2008,160.7651,2010.6538,167.3811,2017.9496" style="stroke: #A80036; stroke-width: 1.0;"/><text fill="#000000" font-family="sans-serif" font-size="11" lengthAdjust="spacingAndGlyphs" textLength="7" x="161" y="1995.2104">1</text><!--link 0,1,5,0 to 0,1,5,1--><path d="M157.1983,2017.7837 C152.7488,2011.9238 148.4561,2005.0599 146,1998 C142.8847,1989.0452 142.0242,1978.6665 142.0778,1969.6185 " fill="none" id="0,1,5,0-0,1,5,1" style="stroke: #A80036; stroke-width: 1.0;"/><polygon fill="#A80036" points="142.2049,1964.4658,137.9842,1973.3644,142.0816,1969.4643,145.9818,1973.5617,142.2049,1964.4658" style="stroke: #A80036; stroke-width: 1.0;"/><text fill="#000000" font-family="sans-serif" font-size="11" lengthAdjust="spacingAndGlyphs" textLength="7" x="147" y="1995.2104">1</text><!--link 0,1,5,1 to 0,1,4,1--><path d="M111.9037,1956.9008 C98.999,1962.6366 85.4366,1971.3055 78,1984 C72.9221,1992.6681 73.6531,2003.5568 76.0707,2013.0448 " fill="none" id="0,1,5,1-0,1,4,1" style="stroke: #A80036; stroke-width: 1.0;"/><polygon fill="#A80036" points="77.4669,2017.8595,78.8017,2008.1015,76.0742,2013.0574,71.1183,2010.3298,77.4669,2017.8595" style="stroke: #A80036; stroke-width: 1.0;"/><text fill="#000000" font-family="sans-serif" font-size="11" lengthAdjust="spacingAndGlyphs" textLength="7" x="79" y="1995.2104">5</text><!--link 0,1,4,1 to 0,1,5,1--><path d="M96.4315,2017.9496 C105.8035,2003.971 119.1327,1984.0902 129.2982,1968.9282 " fill="none" id="0,1,4,1-0,1,5,1" style="stroke: #A80036; stroke-width: 1.0;"/><polygon fill="#A80036" points="132.3435,1964.386,124.0092,1969.6338,129.5591,1968.539,130.6539,1974.0889,132.3435,1964.386" style="stroke: #A80036; stroke-width: 1.0;"/><text fill="#000000" font-family="sans-serif" font-size="11" lengthAdjust="spacingAndGlyphs" textLength="7" x="120" y="1995.2104">5</text><!--link 0,0,5,1 to 0,0,5,0--><path d="M213.7772,1876.0491 C215.1784,1909.7042 217.7395,1987.0508 215,2052 C214.3143,2068.2574 212.7492,2086.553 211.3894,2100.5 " fill="none" id="0,0,5,1-0,0,5,0" style="stroke: #A80036; stroke-width: 1.0;"/><polygon fill="#A80036" points="210.8613,2105.8093,215.7324,2097.2494,211.3561,2100.8338,207.7717,2096.4576,210.8613,2105.8093" style="stroke: #A80036; stroke-width: 1.0;"/><text fill="#000000" font-family="sans-serif" font-size="11" lengthAdjust="spacingAndGlyphs" textLength="7" x="217" y="1995.2104">1</text><!--link 0,0,5,0 to 0,1,5,0--><path d="M190.1357,2105.7777 C184.9912,2100.016 180.0114,2093.2097 177,2086 C173.2801,2077.0941 171.9976,2066.5592 171.7534,2057.383 " fill="none" id="0,0,5,0-0,1,5,0" style="stroke: #A80036; stroke-width: 1.0;"/><polygon fill="#A80036" points="171.7191,2052.1598,167.7786,2061.186,171.7521,2057.1597,175.7784,2061.1332,171.7191,2052.1598" style="stroke: #A80036; stroke-width: 1.0;"/><text fill="#000000" font-family="sans-serif" font-size="11" lengthAdjust="spacingAndGlyphs" textLength="7" x="178" y="2083.2104">1</text><!--link 0,1,5,0 to 0,0,5,0--><path d="M180.1124,2052.386 C185.8196,2066.3367 193.8657,2086.0051 200.0174,2101.0424 " fill="none" id="0,1,5,0-0,0,5,0" style="stroke: #A80036; stroke-width: 1.0;"/><polygon fill="#A80036" points="202.0248,2105.9496,202.3191,2096.1051,200.1315,2101.3219,194.9148,2099.1344,202.0248,2105.9496" style="stroke: #A80036; stroke-width: 1.0;"/><text fill="#000000" font-family="sans-serif" font-size="11" lengthAdjust="spacingAndGlyphs" textLength="7" x="194" y="2083.2104">1</text><!--link 0,1,5,0 to 0,1,4,0--><path d="M140.8429,2045.6028 C128.6315,2051.3764 115.9912,2059.8828 109,2072 C103.9678,2080.7219 105.5318,2091.4375 108.9281,2100.7915 " fill="none" id="0,1,5,0-0,1,4,0" style="stroke: #A80036; stroke-width: 1.0;"/><polygon fill="#A80036" points="110.846,2105.5411,111.1852,2095.6981,108.9739,2100.9048,103.7671,2098.6935,110.846,2105.5411" style="stroke: #A80036; stroke-width: 1.0;"/><text fill="#000000" font-family="sans-serif" font-size="11" lengthAdjust="spacingAndGlyphs" textLength="7" x="110" y="2083.2104">5</text><!--link 0,1,4,0 to 0,1,5,0--><path d="M131.0752,2105.9496 C139.3353,2091.971 151.0831,2072.0902 160.0424,2056.9282 " fill="none" id="0,1,4,0-0,1,5,0" style="stroke: #A80036; stroke-width: 1.0;"/><polygon fill="#A80036" points="162.7265,2052.386,154.7041,2058.0993,160.1828,2056.6906,161.5915,2062.1692,162.7265,2052.386" style="stroke: #A80036; stroke-width: 1.0;"/><text fill="#000000" font-family="sans-serif" font-size="11" lengthAdjust="spacingAndGlyphs" textLength="7" x="151" y="2083.2104">5</text><!--link 0,0,5,0 to 0,0,4,0--><path d="M209,2140.386 C209,2154.2154 209,2173.6635 209,2188.6491 " fill="none" id="0,0,5,0-0,0,4,0" style="stroke: #A80036; stroke-width: 1.0;"/><polygon fill="#A80036" points="209,2193.9496,213,2184.9496,209,2188.9496,205,2184.9496,209,2193.9496" style="stroke: #A80036; stroke-width: 1.0;"/><text fill="#000000" font-family="sans-serif" font-size="11" lengthAdjust="spacingAndGlyphs" textLength="7" x="210" y="2171.2104">1</text><!--link 0,0,4,0 to 1,0,4,0--><path d="M209,2228.386 C209,2242.2154 209,2261.6635 209,2276.6491 " fill="none" id="0,0,4,0-1,0,4,0" style="stroke: #A80036; stroke-width: 1.0;"/><polygon fill="#A80036" points="209,2281.9496,213,2272.9496,209,2276.9496,205,2272.9496,209,2281.9496" style="stroke: #A80036; stroke-width: 1.0;"/><text fill="#000000" font-family="sans-serif" font-size="11" lengthAdjust="spacingAndGlyphs" textLength="7" x="210" y="2259.2104">1</text><!--link 1,0,4,0 to 1,0,3,0--><path d="M209,2316.386 C209,2330.2154 209,2349.6635 209,2364.6491 " fill="none" id="1,0,4,0-1,0,3,0" style="stroke: #A80036; stroke-width: 1.0;"/><polygon fill="#A80036" points="209,2369.9496,213,2360.9496,209,2364.9496,205,2360.9496,209,2369.9496" style="stroke: #A80036; stroke-width: 1.0;"/><text fill="#000000" font-family="sans-serif" font-size="11" lengthAdjust="spacingAndGlyphs" textLength="7" x="210" y="2347.2104">1</text><!--link 1,0,3,0 to 2,0,3,0--><path d="M209,2404.386 C209,2418.2154 209,2437.6635 209,2452.6491 " fill="none" id="1,0,3,0-2,0,3,0" style="stroke: #A80036; stroke-width: 1.0;"/><polygon fill="#A80036" points="209,2457.9496,213,2448.9496,209,2452.9496,205,2448.9496,209,2457.9496" style="stroke: #A80036; stroke-width: 1.0;"/><text fill="#000000" font-family="sans-serif" font-size="11" lengthAdjust="spacingAndGlyphs" textLength="7" x="210" y="2435.2104">1</text><!--link 2,0,3,0 to 2,0,2,0--><path d="M209,2492.386 C209,2506.2154 209,2525.6635 209,2540.6491 " fill="none" id="2,0,3,0-2,0,2,0" style="stroke: #A80036; stroke-width: 1.0;"/><polygon fill="#A80036" points="209,2545.9496,213,2536.9496,209,2540.9496,205,2536.9496,209,2545.9496" style="stroke: #A80036; stroke-width: 1.0;"/><text fill="#000000" font-family="sans-serif" font-size="11" lengthAdjust="spacingAndGlyphs" textLength="7" x="210" y="2523.2104">1</text><!--link 2,0,2,0 to 3,0,2,0--><path d="M209,2580.386 C209,2594.2154 209,2613.6635 209,2628.6491 " fill="none" id="2,0,2,0-3,0,2,0" style="stroke: #A80036; stroke-width: 1.0;"/><polygon fill="#A80036" points="209,2633.9496,213,2624.9496,209,2628.9496,205,2624.9496,209,2633.9496" style="stroke: #A80036; stroke-width: 1.0;"/><text fill="#000000" font-family="sans-serif" font-size="11" lengthAdjust="spacingAndGlyphs" textLength="7" x="210" y="2611.2104">1</text><!--link 3,0,2,0 to 3,0,1,0--><path d="M209,2668.386 C209,2682.2154 209,2701.6635 209,2716.6491 " fill="none" id="3,0,2,0-3,0,1,0" style="stroke: #A80036; stroke-width: 1.0;"/><polygon fill="#A80036" points="209,2721.9496,213,2712.9496,209,2716.9496,205,2712.9496,209,2721.9496" style="stroke: #A80036; stroke-width: 1.0;"/><text fill="#000000" font-family="sans-serif" font-size="11" lengthAdjust="spacingAndGlyphs" textLength="7" x="210" y="2699.2104">1</text><!--link 3,0,1,0 to 4,0,1,0--><path d="M208.8024,2756.386 C208.6453,2770.2154 208.4243,2789.6635 208.254,2804.6491 " fill="none" id="3,0,1,0-4,0,1,0" style="stroke: #A80036; stroke-width: 1.0;"/><polygon fill="#A80036" points="208.1938,2809.9496,212.2959,2800.9957,208.2507,2804.9499,204.2964,2800.9047,208.1938,2809.9496" style="stroke: #A80036; stroke-width: 1.0;"/><text fill="#000000" font-family="sans-serif" font-size="11" lengthAdjust="spacingAndGlyphs" textLength="7" x="209" y="2787.2104">1</text><!--link 4,0,1,0 to 4,0,0,0--><path d="M207.4073,2844.386 C206.9358,2858.2154 206.2728,2877.6635 205.762,2892.6491 " fill="none" id="4,0,1,0-4,0,0,0" style="stroke: #A80036; stroke-width: 1.0;"/><polygon fill="#A80036" points="205.5813,2897.9496,209.8857,2889.0912,205.7517,2892.9525,201.8904,2888.8185,205.5813,2897.9496" style="stroke: #A80036; stroke-width: 1.0;"/><text fill="#000000" font-family="sans-serif" font-size="11" lengthAdjust="spacingAndGlyphs" textLength="7" x="207" y="2875.2104">1</text><!--link 4,0,0,0 to 5,0,0,0--><path d="M203.7911,2932.1719 C203.4715,2942.1458 203.7215,2954.8958 206,2966 C207.024,2970.9906 208.6965,2976.1655 210.5607,2981.0075 " fill="none" id="4,0,0,0-5,0,0,0" style="stroke: #A80036; stroke-width: 1.0;"/><polygon fill="#A80036" points="212.4719,2985.7193,212.7956,2975.8758,210.5925,2981.086,205.3822,2978.8829,212.4719,2985.7193" style="stroke: #A80036; stroke-width: 1.0;"/><text fill="#000000" font-family="sans-serif" font-size="11" lengthAdjust="spacingAndGlyphs" textLength="7" x="207" y="2963.2104">5</text><!--link 5,0,0,0 to 4,0,0,0--><path d="M219.6209,2985.9037 C218.6612,2975.955 217.1612,2963.205 215,2952 C214.0746,2947.2018 212.8571,2942.1117 211.5914,2937.292 " fill="none" id="5,0,0,0-4,0,0,0" style="stroke: #A80036; stroke-width: 1.0;"/><polygon fill="#A80036" points="210.2106,2932.1949,208.7034,2941.9277,211.5181,2937.0209,216.425,2939.8357,210.2106,2932.1949" style="stroke: #A80036; stroke-width: 1.0;"/><text fill="#000000" font-family="sans-serif" font-size="11" lengthAdjust="spacingAndGlyphs" textLength="7" x="218" y="2963.2104">5</text><!--link 4,0,0,0 to 3,0,0,0--><path d="M172.8999,2924.7028 C159.7207,2930.4283 145.7574,2939.1439 138,2952 C132.9043,2960.4449 132.0532,2971.1949 132.7178,2980.6457 " fill="none" id="4,0,0,0-3,0,0,0" style="stroke: #A80036; stroke-width: 1.0;"/><polygon fill="#A80036" points="133.2257,2985.7397,136.3129,2976.3872,132.7296,2980.7644,128.3524,2977.181,133.2257,2985.7397" style="stroke: #A80036; stroke-width: 1.0;"/><text fill="#000000" font-family="sans-serif" font-size="11" lengthAdjust="spacingAndGlyphs" textLength="7" x="139" y="2963.2104">5</text><!--link 3,0,0,0 to 4,0,0,0--><path d="M150.1753,2985.9496 C161.0701,2971.8505 176.6046,2951.747 188.3577,2936.5371 " fill="none" id="3,0,0,0-4,0,0,0" style="stroke: #A80036; stroke-width: 1.0;"/><polygon fill="#A80036" points="191.5654,2932.386,182.8972,2937.0617,188.5081,2936.3424,189.2274,2941.9533,191.5654,2932.386" style="stroke: #A80036; stroke-width: 1.0;"/><text fill="#000000" font-family="sans-serif" font-size="11" lengthAdjust="spacingAndGlyphs" textLength="7" x="176" y="2963.2104">4</text><!--link 3,0,0,0 to 2,0,0,0--><path d="M138.193,3020.4461 C139.6587,3031.0003 142.8929,3044.2551 150,3054 C155.8309,3061.995 163.9638,3068.6597 172.3309,3074.0276 " fill="none" id="3,0,0,0-2,0,0,0" style="stroke: #A80036; stroke-width: 1.0;"/><polygon fill="#A80036" points="176.9903,3076.8765,171.3985,3068.769,172.7245,3074.2683,167.2253,3075.5943,176.9903,3076.8765" style="stroke: #A80036; stroke-width: 1.0;"/><text fill="#000000" font-family="sans-serif" font-size="11" lengthAdjust="spacingAndGlyphs" textLength="7" x="151" y="3051.2104">5</text><!--link 2,0,0,0 to 3,0,0,0--><path d="M195.0497,3073.9496 C183.514,3059.8505 167.0657,3039.747 154.6213,3024.5371 " fill="none" id="2,0,0,0-3,0,0,0" style="stroke: #A80036; stroke-width: 1.0;"/><polygon fill="#A80036" points="151.2249,3020.386,153.8284,3029.8845,154.3912,3024.2557,160.02,3024.8185,151.2249,3020.386" style="stroke: #A80036; stroke-width: 1.0;"/><text fill="#000000" font-family="sans-serif" font-size="11" lengthAdjust="spacingAndGlyphs" textLength="7" x="178" y="3051.2104">4</text><!--link 2,0,0,0 to 1,0,0,0--><path d="M211.3798,3108.1787 C213.4485,3118.6323 217.2248,3131.8752 224,3142 C228.0754,3148.0902 233.4626,3153.6647 239.1109,3158.5365 " fill="none" id="2,0,0,0-1,0,0,0" style="stroke: #A80036; stroke-width: 1.0;"/><polygon fill="#A80036" points="243.0501,3161.7947,238.6643,3152.9763,239.1972,3158.608,233.5655,3159.1409,243.0501,3161.7947" style="stroke: #A80036; stroke-width: 1.0;"/><text fill="#000000" font-family="sans-serif" font-size="11" lengthAdjust="spacingAndGlyphs" textLength="7" x="225" y="3139.2104">5</text><!--link 1,0,0,0 to 2,0,0,0--><path d="M258.181,3161.9496 C248.4077,3147.8505 234.4723,3127.747 223.9291,3112.5371 " fill="none" id="1,0,0,0-2,0,0,0" style="stroke: #A80036; stroke-width: 1.0;"/><polygon fill="#A80036" points="221.0516,3108.386,222.8914,3118.0615,223.9,3112.4953,229.4662,3113.504,221.0516,3108.386" style="stroke: #A80036; stroke-width: 1.0;"/><text fill="#000000" font-family="sans-serif" font-size="11" lengthAdjust="spacingAndGlyphs" textLength="7" x="244" y="3139.2104">4</text><!--link 0,0,0,0 to 1,0,0,0--><path d="M284,468.1995 C284,485.9382 284,514.4028 284,539 C284,539 284,539 284,3091 C284,3113.5716 279.4523,3138.9998 275.5407,3156.6963 " fill="none" id="0,0,0,0-1,0,0,0" style="stroke: #A80036; stroke-width: 1.0;"/><polygon fill="#A80036" points="274.3529,3161.9283,280.2463,3154.0373,275.4599,3157.0524,272.4448,3152.266,274.3529,3161.9283" style="stroke: #A80036; stroke-width: 1.0;"/><text fill="#000000" font-family="sans-serif" font-size="11" lengthAdjust="spacingAndGlyphs" textLength="7" x="285" y="1819.2104">4</text><!--link 1,0,0,0 to 0,0,0,0--><path d="M289.272,3161.8225 C305.4708,3145.4082 326,3119.0688 326,3091 C326,539 326,539 326,539 C326,514.3424 312.4035,489.2557 300.6825,472.2105 " fill="none" id="1,0,0,0-0,0,0,0" style="stroke: #A80036; stroke-width: 1.0;"/><polygon fill="#A80036" points="297.7524,468.0554,299.6702,477.7157,300.6339,472.1416,306.2081,473.1053,297.7524,468.0554" style="stroke: #A80036; stroke-width: 1.0;"/><text fill="#000000" font-family="sans-serif" font-size="11" lengthAdjust="spacingAndGlyphs" textLength="7" x="327" y="1819.2104">5</text><!--
@startuml
(*) - -> [1] "null,null,null,null"
"null,null,null,null" - -> [1] "0,null,null,null"
"0,null,null,null" - -> [1] "0,0,null,null"
"0,0,null,null" - -> [1] "0,0,null,0"
"0,0,null,0" - -> [1] "0,0,0,0"
"0,0,0,0" - -> [1] "0,1,0,0"
"0,1,0,0" - -> [1] "0,1,1,0"
"0,1,1,0" - -> [1] "0,1,2,0"
"0,1,2,0" - -> [1] "0,1,3,0"
"0,1,3,0" - -> [1] "0,1,3,1"
"0,1,3,1" - -> [1] "0,1,3,2"
"0,1,3,2" - -> [1] "0,1,3,3"
"0,1,3,3" - -> [1] "0,1,3,4"
"0,1,3,4" - -> [1] "0,1,4,4"
"0,1,4,4" - -> [1] "0,1,5,4"
"0,1,5,4" - -> [21] "0,0,5,4"
"0,0,5,4" - -> [21] "0,0,5,3"
"0,0,5,3" - -> [21] "0,1,5,3"
"0,1,5,3" - -> [63] "0,1,5,2"
"0,1,5,2" - -> [63] "0,1,5,3"
"0,1,5,3" - -> [105] "0,1,4,3"
"0,1,4,3" - -> [105] "0,1,5,3"
"0,1,5,3" - -> [20] "0,1,5,4"
"0,1,5,3" - -> [1] "0,0,5,3"
"0,0,5,3" - -> [1] "0,0,5,2"
"0,0,5,2" - -> [1] "0,1,5,2"
"0,1,5,2" - -> [2] "0,1,5,1"
"0,1,5,1" - -> [2] "0,1,5,2"
"0,1,5,2" - -> [5] "0,1,4,2"
"0,1,4,2" - -> [5] "0,1,5,2"
"0,1,5,2" - -> [1] "0,0,5,2"
"0,0,5,2" - -> [1] "0,0,5,1"
"0,0,5,1" - -> [1] "0,1,5,1"
"0,1,5,1" - -> [1] "0,1,5,0"
"0,1,5,0" - -> [1] "0,1,5,1"
"0,1,5,1" - -> [5] "0,1,4,1"
"0,1,4,1" - -> [5] "0,1,5,1"
"0,1,5,1" - -> [1] "0,0,5,1"
"0,0,5,1" - -> [1] "0,0,5,0"
"0,0,5,0" - -> [1] "0,1,5,0"
"0,1,5,0" - -> [5] "0,1,4,0"
"0,1,4,0" - -> [5] "0,1,5,0"
"0,1,5,0" - -> [1] "0,0,5,0"
"0,0,5,0" - -> [1] "0,0,4,0"
"0,0,4,0" - -> [1] "1,0,4,0"
"1,0,4,0" - -> [1] "1,0,3,0"
"1,0,3,0" - -> [1] "2,0,3,0"
"2,0,3,0" - -> [1] "2,0,2,0"
"2,0,2,0" - -> [1] "3,0,2,0"
"3,0,2,0" - -> [1] "3,0,1,0"
"3,0,1,0" - -> [1] "4,0,1,0"
"4,0,1,0" - -> [1] "4,0,0,0"
"4,0,0,0" - -> [5] "5,0,0,0"
"5,0,0,0" - -> [5] "4,0,0,0"
"4,0,0,0" - -> [5] "3,0,0,0"
"3,0,0,0" - -> [5] "2,0,0,0"
"2,0,0,0" - -> [5] "1,0,0,0"
"0,0,0,0" - -> [4] "1,0,0,0"
"1,0,0,0" - -> [4] "2,0,0,0"
"2,0,0,0" - -> [4] "3,0,0,0"
"3,0,0,0" - -> [4] "4,0,0,0"
"1,0,0,0" - -> [5] "0,0,0,0" #red
@enduml

PlantUML version 1.2018.09(Fri Jul 27 12:58:18 EDT 2018)
(EPL source distribution)
Java Runtime: OpenJDK Runtime Environment
JVM: OpenJDK 64-Bit Server VM
Java Version: 1.8.0_181-8u181-b13-0ubuntu0.18.04.1-b13
Operating System: Linux
OS Version: 4.15.0-36-generic
Default Encoding: UTF-8
Language: en
Country: US
--></g></svg>