<?xml version="1.0" encoding="UTF-8" standalone="no"?><svg xmlns="http://www.w3.org/2000/svg" xmlns:xlink="http://www.w3.org/1999/xlink" contentScriptType="application/ecmascript" contentStyleType="text/css" height="742px" preserveAspectRatio="none" style="width:145px;height:742px;" version="1.1" viewBox="0 0 145 742" width="145px" zoomAndPan="magnify"><defs><filter height="300%" id="f18gyeslu6gloz" width="300%" x="-1" y="-1"><feGaussianBlur result="blurOut" stdDeviation="2.0"/><feColorMatrix in="blurOut" result="blurOut2" type="matrix" values="0 0 0 0 0 0 0 0 0 0 0 0 0 0 0 0 0 0 .4 0"/><feOffset dx="4.0" dy="4.0" in="blurOut2" result="blurOut3"/><feBlend in="SourceGraphic" in2="blurOut3" mode="normal"/></filter></defs><g><ellipse cx="76" cy="18" fill="#000000" filter="url(#f18gyeslu6gloz)" rx="10" ry="10" style="stroke: none; stroke-width: 1.0;"/><rect fill="#FEFECE" filter="url(#f18gyeslu6gloz)" height="33.9688" rx="12.5" ry="12.5" style="stroke: #A80036; stroke-width: 1.5;" width="68" x="42" y="82"/><text fill="#000000" font-family="sans-serif" font-size="12" lengthAdjust="spacingAndGlyphs" textLength="48" x="52" y="103.1387">null,null</text><rect fill="#FEFECE" filter="url(#f18gyeslu6gloz)" height="33.9688" rx="12.5" ry="12.5" style="stroke: #A80036; stroke-width: 1.5;" width="54" x="49" y="170"/><text fill="#000000" font-family="sans-serif" font-size="12" lengthAdjust="spacingAndGlyphs" textLength="34" x="59" y="191.1387">0,null</text><rect fill="#FF0000" filter="url(#f18gyeslu6gloz)" height="33.9688" rx="12.5" ry="12.5" style="stroke: #A80036; stroke-width: 1.5;" width="40" x="56" y="258"/><text fill="#000000" font-family="sans-serif" font-size="12" lengthAdjust="spacingAndGlyphs" textLength="20" x="66" y="279.1387">0,0</text><rect fill="#FEFECE" filter="url(#f18gyeslu6gloz)" height="33.9688" rx="12.5" ry="12.5" style="stroke: #A80036; stroke-width: 1.5;" width="40" x="6" y="346"/><text fill="#000000" font-family="sans-serif" font-size="12" lengthAdjust="spacingAndGlyphs" textLength="20" x="16" y="367.1387">0,1</text><rect fill="#FEFECE" filter="url(#f18gyeslu6gloz)" height="33.9688" rx="12.5" ry="12.5" style="stroke: #A80036; stroke-width: 1.5;" width="40" x="94" y="346"/><text fill="#000000" font-family="sans-serif" font-size="12" lengthAdjust="spacingAndGlyphs" textLength="20" x="104" y="367.1387">1,0</text><rect fill="#FEFECE" filter="url(#f18gyeslu6gloz)" height="33.9688" rx="12.5" ry="12.5" style="stroke: #A80036; stroke-width: 1.5;" width="40" x="94" y="434"/><text fill="#000000" font-family="sans-serif" font-size="12" lengthAdjust="spacingAndGlyphs" textLength="20" x="104" y="455.1387">2,0</text><rect fill="#FEFECE" filter="url(#f18gyeslu6gloz)" height="33.9688" rx="12.5" ry="12.5" style="stroke: #A80036; stroke-width: 1.5;" width="40" x="94" y="522"/><text fill="#000000" font-family="sans-serif" font-size="12" lengthAdjust="spacingAndGlyphs" textLength="20" x="104" y="543.1387">3,0</text><rect fill="#FEFECE" filter="url(#f18gyeslu6gloz)" height="33.9688" rx="12.5" ry="12.5" style="stroke: #A80036; stroke-width: 1.5;" width="40" x="94" y="610"/><text fill="#000000" font-family="sans-serif" font-size="12" lengthAdjust="spacingAndGlyphs" textLength="20" x="104" y="631.1387">4,0</text><rect fill="#FEFECE" filter="url(#f18gyeslu6gloz)" height="33.9688" rx="12.5" ry="12.5" style="stroke: #A80036; stroke-width: 1.5;" width="40" x="94" y="698"/><text fill="#000000" font-family="sans-serif" font-size="12" lengthAdjust="spacingAndGlyphs" textLength="20" x="104" y="719.1387">5,0</text><!--link start to null,null--><path d="M76,28.2587 C76,40.3447 76,60.7784 76,76.586 " fill="none" id="start-null,null" style="stroke: #A80036; stroke-width: 1.0;"/><polygon fill="#A80036" points="76,81.7507,80,72.7507,76,76.7507,72,72.7507,76,81.7507" style="stroke: #A80036; stroke-width: 1.0;"/><text fill="#000000" font-family="sans-serif" font-size="11" lengthAdjust="spacingAndGlyphs" textLength="7" x="77" y="59.2104">1</text><!--link null,null to 0,null--><path d="M76,116.386 C76,130.2154 76,149.6635 76,164.6491 " fill="none" id="null,null-0,null" style="stroke: #A80036; stroke-width: 1.0;"/><polygon fill="#A80036" points="76,169.9496,80,160.9496,76,164.9496,72,160.9496,76,169.9496" style="stroke: #A80036; stroke-width: 1.0;"/><text fill="#000000" font-family="sans-serif" font-size="11" lengthAdjust="spacingAndGlyphs" textLength="7" x="77" y="147.2104">1</text><!--link 0,null to 0,0--><path d="M76,204.386 C76,218.2154 76,237.6635 76,252.6491 " fill="none" id="0,null-0,0" style="stroke: #A80036; stroke-width: 1.0;"/><polygon fill="#A80036" points="76,257.9496,80,248.9496,76,252.9496,72,248.9496,76,257.9496" style="stroke: #A80036; stroke-width: 1.0;"/><text fill="#000000" font-family="sans-serif" font-size="11" lengthAdjust="spacingAndGlyphs" textLength="7" x="77" y="235.2104">1</text><!--link 0,0 to 0,1--><path d="M55.9161,281.2414 C41.705,286.8296 23.6897,296.5659 15,312 C10.0806,320.7376 11.4728,331.4552 14.6379,340.8066 " fill="none" id="0,0-0,1" style="stroke: #A80036; stroke-width: 1.0;"/><polygon fill="#A80036" points="16.4305,345.5545,16.9933,335.7217,14.6642,340.8769,9.5091,338.5478,16.4305,345.5545" style="stroke: #A80036; stroke-width: 1.0;"/><text fill="#000000" font-family="sans-serif" font-size="11" lengthAdjust="spacingAndGlyphs" textLength="14" x="16" y="323.2104">25</text><!--link 0,1 to 0,0--><path d="M35.6877,345.9496 C43.6301,331.971 54.926,312.0902 63.5408,296.9282 " fill="none" id="0,1-0,0" style="stroke: #A80036; stroke-width: 1.0;"/><polygon fill="#A80036" points="66.1216,292.386,58.1976,298.2349,63.6515,296.7332,65.1532,302.1871,66.1216,292.386" style="stroke: #A80036; stroke-width: 1.0;"/><text fill="#000000" font-family="sans-serif" font-size="11" lengthAdjust="spacingAndGlyphs" textLength="14" x="55" y="323.2104">25</text><!--link 0,0 to 1,0--><path d="M83.3295,292.0016 C87.606,301.9189 93.106,314.6689 98,326 C100.0812,330.8186 102.3162,335.9896 104.4363,340.8928 " fill="none" id="0,0-1,0" style="stroke: #A80036; stroke-width: 1.0;"/><polygon fill="#A80036" points="106.5082,345.6839,106.6074,335.8355,104.5236,341.0946,99.2646,339.0109,106.5082,345.6839" style="stroke: #A80036; stroke-width: 1.0;"/><text fill="#000000" font-family="sans-serif" font-size="11" lengthAdjust="spacingAndGlyphs" textLength="7" x="99" y="323.2104">5</text><!--link 1,0 to 0,0--><path d="M114.001,345.818 C113.4362,335.6088 111.7046,322.6232 107,312 C104.508,306.3729 100.8947,300.9294 97.0085,296.0273 " fill="none" id="1,0-0,0" style="stroke: #A80036; stroke-width: 1.0;"/><polygon fill="#A80036" points="93.6985,292.0447,96.3748,301.523,96.8944,295.89,102.5273,296.4096,93.6985,292.0447" style="stroke: #A80036; stroke-width: 1.0;"/><text fill="#000000" font-family="sans-serif" font-size="11" lengthAdjust="spacingAndGlyphs" textLength="7" x="112" y="323.2104">5</text><!--link 1,0 to 2,0--><path d="M103.9794,380.2398 C99.4694,390.0167 95.6304,402.5502 98,414 C99.0425,419.0371 100.8052,424.2318 102.7888,429.0784 " fill="none" id="1,0-2,0" style="stroke: #A80036; stroke-width: 1.0;"/><polygon fill="#A80036" points="104.8274,433.7902,104.9247,423.9418,102.842,429.2013,97.5825,427.1185,104.8274,433.7902" style="stroke: #A80036; stroke-width: 1.0;"/><text fill="#000000" font-family="sans-serif" font-size="11" lengthAdjust="spacingAndGlyphs" textLength="7" x="99" y="411.2104">5</text><!--link 2,0 to 1,0--><path d="M114,433.9496 C114,420.212 114,400.774 114,385.7166 " fill="none" id="2,0-1,0" style="stroke: #A80036; stroke-width: 1.0;"/><polygon fill="#A80036" points="114,380.386,110,389.386,114,385.386,118,389.386,114,380.386" style="stroke: #A80036; stroke-width: 1.0;"/><text fill="#000000" font-family="sans-serif" font-size="11" lengthAdjust="spacingAndGlyphs" textLength="7" x="115" y="411.2104">5</text><!--link 2,0 to 3,0--><path d="M103.9794,468.2398 C99.4694,478.0167 95.6304,490.5502 98,502 C99.0425,507.0371 100.8052,512.2318 102.7888,517.0784 " fill="none" id="2,0-3,0" style="stroke: #A80036; stroke-width: 1.0;"/><polygon fill="#A80036" points="104.8274,521.7902,104.9247,511.9418,102.842,517.2013,97.5825,515.1185,104.8274,521.7902" style="stroke: #A80036; stroke-width: 1.0;"/><text fill="#000000" font-family="sans-serif" font-size="11" lengthAdjust="spacingAndGlyphs" textLength="7" x="99" y="499.2104">5</text><!--link 3,0 to 2,0--><path d="M114,521.9496 C114,508.212 114,488.774 114,473.7166 " fill="none" id="3,0-2,0" style="stroke: #A80036; stroke-width: 1.0;"/><polygon fill="#A80036" points="114,468.386,110,477.386,114,473.386,118,477.386,114,468.386" style="stroke: #A80036; stroke-width: 1.0;"/><text fill="#000000" font-family="sans-serif" font-size="11" lengthAdjust="spacingAndGlyphs" textLength="7" x="115" y="499.2104">5</text><!--link 3,0 to 4,0--><path d="M104.8274,556.2098 C102.0605,562.2875 99.39,569.2838 98,576 C96.0007,585.6607 98.4213,596.0931 101.9356,604.99 " fill="none" id="3,0-4,0" style="stroke: #A80036; stroke-width: 1.0;"/><polygon fill="#A80036" points="103.9794,609.7602,104.1114,599.9122,102.0101,605.1643,96.758,603.0631,103.9794,609.7602" style="stroke: #A80036; stroke-width: 1.0;"/><text fill="#000000" font-family="sans-serif" font-size="11" lengthAdjust="spacingAndGlyphs" textLength="7" x="99" y="587.2104">5</text><!--link 4,0 to 3,0--><path d="M114,609.9496 C114,596.212 114,576.774 114,561.7166 " fill="none" id="4,0-3,0" style="stroke: #A80036; stroke-width: 1.0;"/><polygon fill="#A80036" points="114,556.386,110,565.386,114,561.386,118,565.386,114,556.386" style="stroke: #A80036; stroke-width: 1.0;"/><text fill="#000000" font-family="sans-serif" font-size="11" lengthAdjust="spacingAndGlyphs" textLength="7" x="115" y="587.2104">5</text><!--link 4,0 to 5,0--><path d="M103.9794,644.2398 C99.4694,654.0167 95.6304,666.5502 98,678 C99.0425,683.0371 100.8052,688.2318 102.7888,693.0784 " fill="none" id="4,0-5,0" style="stroke: #A80036; stroke-width: 1.0;"/><polygon fill="#A80036" points="104.8274,697.7902,104.9247,687.9418,102.842,693.2013,97.5825,691.1185,104.8274,697.7902" style="stroke: #A80036; stroke-width: 1.0;"/><text fill="#000000" font-family="sans-serif" font-size="11" lengthAdjust="spacingAndGlyphs" textLength="7" x="99" y="675.2104">5</text><!--link 5,0 to 4,0--><path d="M114,697.9496 C114,684.212 114,664.774 114,649.7166 " fill="none" id="5,0-4,0" style="stroke: #A80036; stroke-width: 1.0;"/><polygon fill="#A80036" points="114,644.386,110,653.386,114,649.386,118,653.386,114,644.386" style="stroke: #A80036; stroke-width: 1.0;"/><text fill="#000000" font-family="sans-serif" font-size="11" lengthAdjust="spacingAndGlyphs" textLength="7" x="115" y="675.2104">5</text><!--
@startuml
(*) - -> [1] "null,null"
"null,null" - -> [1] "0,null"
"0,null" - -> [1] "0,0"
"0,0" - -> [25] "0,1"
"0,1" - -> [25] "0,0"
"0,0" - -> [5] "1,0"
"1,0" - -> [5] "2,0"
"2,0" - -> [5] "3,0"
"3,0" - -> [5] "4,0"
"4,0" - -> [5] "5,0"
"5,0" - -> [5] "4,0"
"4,0" - -> [5] "3,0"
"3,0" - -> [5] "2,0"
"2,0" - -> [5] "1,0"
"1,0" - -> [5] "0,0" #red
@enduml

PlantUML version 1.2018.09(Fri Jul 27 12:58:18 EDT 2018)
(EPL source distribution)
Java Runtime: OpenJDK Runtime Environment
JVM: OpenJDK 64-Bit Server VM
Java Version: 1.8.0_181-8u181-b13-0ubuntu0.18.04.1-b13
Operating System: Linux
OS Version: 4.15.0-36-generic
Default Encoding: UTF-8
Language: en
Country: US
--></g></svg>